<?xml version="1.0" encoding="UTF-8" standalone="no"?>
<!-- Created with Inkscape (http://www.inkscape.org/) -->

<svg
   version="1.1"
   id="svg1"
   width="478.11572"
   height="96.839989"
   viewBox="0 0 478.11574 96.839986"
   sodipodi:docname="Annonsebilder for nasjonaltestdag_1000x1415.pdf"
   xml:space="preserve"
   inkscape:version="1.3 (0e150ed, 2023-07-21)"
   inkscape:dataloss="true"
   xmlns:inkscape="http://www.inkscape.org/namespaces/inkscape"
   xmlns:sodipodi="http://sodipodi.sourceforge.net/DTD/sodipodi-0.dtd"
   xmlns="http://www.w3.org/2000/svg"
   xmlns:svg="http://www.w3.org/2000/svg"><defs
     id="defs1"><clipPath
       clipPathUnits="userSpaceOnUse"
       id="clipPath9"><path
         d="M 0,1415 H 1000 V 0 H 0 Z"
         transform="translate(-353.64551,-1328.6737)"
         id="path9" /></clipPath><clipPath
       clipPathUnits="userSpaceOnUse"
       id="clipPath11"><path
         d="M 0,1415 H 1000 V 0 H 0 Z"
         transform="translate(-366.50431,-1358.403)"
         id="path11" /></clipPath><clipPath
       clipPathUnits="userSpaceOnUse"
       id="clipPath13"><path
         d="M 0,1415 H 1000 V 0 H 0 Z"
         transform="translate(-357.38061,-1322.777)"
         id="path13" /></clipPath><clipPath
       clipPathUnits="userSpaceOnUse"
       id="clipPath15"><path
         d="M 0,1415 H 1000 V 0 H 0 Z"
         transform="translate(-420.73811,-1335.9314)"
         id="path15" /></clipPath><clipPath
       clipPathUnits="userSpaceOnUse"
       id="clipPath17"><path
         d="M 0,1415 H 1000 V 0 H 0 Z"
         transform="translate(-465.56871,-1319.299)"
         id="path17" /></clipPath><clipPath
       clipPathUnits="userSpaceOnUse"
       id="clipPath19"><path
         d="M 0,1415 H 1000 V 0 H 0 Z"
         transform="translate(-496.19361,-1307.0328)"
         id="path19" /></clipPath><clipPath
       clipPathUnits="userSpaceOnUse"
       id="clipPath21"><path
         d="M 0,1415 H 1000 V 0 H 0 Z"
         transform="translate(-515.55431,-1314.7136)"
         id="path21" /></clipPath><clipPath
       clipPathUnits="userSpaceOnUse"
       id="clipPath23"><path
         d="M 0,1415 H 1000 V 0 H 0 Z"
         transform="translate(-534.29851,-1317.8099)"
         id="path23" /></clipPath><clipPath
       clipPathUnits="userSpaceOnUse"
       id="clipPath25"><path
         d="M 0,1415 H 1000 V 0 H 0 Z"
         transform="translate(-575.97671,-1307.0328)"
         id="path25" /></clipPath><clipPath
       clipPathUnits="userSpaceOnUse"
       id="clipPath27"><path
         d="M 0,1415 H 1000 V 0 H 0 Z"
         transform="translate(-601.96661,-1323.0498)"
         id="path27" /></clipPath><clipPath
       clipPathUnits="userSpaceOnUse"
       id="clipPath29"><path
         d="M 0,1415 H 1000 V 0 H 0 Z"
         transform="translate(-612.74282,-1321.1444)"
         id="path29" /></clipPath><clipPath
       clipPathUnits="userSpaceOnUse"
       id="clipPath31"><path
         d="M 0,1415 H 1000 V 0 H 0 Z"
         transform="translate(-655.41892,-1310.4669)"
         id="path31" /></clipPath><clipPath
       clipPathUnits="userSpaceOnUse"
       id="clipPath33"><path
         d="M 0,1415 H 1000 V 0 H 0 Z"
         transform="translate(-677.25812,-1320.8867)"
         id="path33" /></clipPath></defs><sodipodi:namedview
     id="namedview1"
     pagecolor="#ffffff"
     bordercolor="#000000"
     borderopacity="0.25"
     inkscape:showpageshadow="2"
     inkscape:pageopacity="0.0"
     inkscape:pagecheckerboard="0"
     inkscape:deskcolor="#d1d1d1"
     inkscape:zoom="0.39247443"
     inkscape:cx="900.69562"
     inkscape:cy="946.55848"
     inkscape:window-width="1728"
     inkscape:window-height="1178"
     inkscape:window-x="575"
     inkscape:window-y="113"
     inkscape:window-maximized="0"
     inkscape:current-layer="layer-MC0"
     inkscape:export-bgcolor="#ffffff00" /><g
     id="layer-MC0"
     inkscape:groupmode="layer"
     inkscape:label="Layer 1"
     transform="translate(-427.59377,-75.462671)"><path
       id="path8"
       d="m 0,0 c 0.504,-0.16 1.022,-0.283 1.551,-0.379 0.701,-0.123 1.421,-0.191 2.158,-0.191 0.008,0 0.017,0.001 0.025,0.001 0.009,0 0.016,-0.001 0.024,-0.001 0.735,0 1.453,0.068 2.151,0.191 0.531,0.094 1.049,0.218 1.554,0.377 4.947,1.559 8.54,6.147 8.54,11.553 0,5.431 -3.629,10.04 -8.613,11.576 -0.507,0.156 -1.028,0.277 -1.561,0.368 -0.674,0.114 -1.365,0.177 -2.071,0.177 -0.008,0 -0.015,-0.002 -0.024,-0.002 -0.008,0 -0.017,0.002 -0.025,0.002 -0.708,0 -1.401,-0.063 -2.076,-0.178 C 1.1,23.404 0.579,23.281 0.073,23.125 -4.909,21.589 -8.535,16.981 -8.535,11.551 -8.535,6.146 -4.945,1.56 0,0 m 5.64,2.451 c 2.27,2.29 3.497,5.276 3.585,8.723 h 3.867 C 12.919,6.869 9.775,3.31 5.64,2.451 m 7.452,9.477 H 9.229 c -0.078,3.437 -1.285,6.414 -3.526,8.707 4.105,-0.881 7.216,-4.427 7.389,-8.707 M 4.089,20.839 H 4.111 C 6.56,18.821 8.19,15.879 8.282,11.928 H 4.089 Z m 0,-9.665 H 8.28 C 8.176,7.236 6.54,4.306 4.089,2.297 Z M 3.308,2.346 c -2.417,2.008 -4.026,4.922 -4.13,8.828 h 4.13 z m 0,18.459 v -8.877 h -4.13 c 0.092,3.929 1.705,6.86 4.13,8.877 M 1.755,20.634 C -0.484,18.34 -1.691,15.363 -1.769,11.928 h -3.856 c 0.173,4.277 3.279,7.819 7.38,8.706 m -3.522,-9.46 c 0.088,-3.447 1.315,-6.43 3.583,-8.721 -4.131,0.864 -7.266,4.421 -7.441,8.721 z"
       style="fill:#03312c;fill-opacity:1;fill-rule:nonzero;stroke:none"
       transform="matrix(1.3333333,0,0,-1.3333333,471.52733,115.10173)"
       clip-path="url(#clipPath9)" /><path
       id="path10"
       d="m 0,0 h -18.247 c -7.333,0 -14.246,-2.847 -19.467,-8.013 -5.22,-5.167 -8.095,-12.011 -8.095,-19.271 v -18.062 c 0,-7.26 2.875,-14.104 8.095,-19.271 5.221,-5.166 12.134,-8.013 19.467,-8.013 H 0 c 7.333,0 14.246,2.847 19.466,8.013 5.221,5.167 8.096,12.011 8.096,19.271 v 18.062 c 0,7.26 -2.875,14.104 -8.096,19.271 C 14.246,-2.847 7.333,0 0,0 m 25.281,-45.346 c 0,-13.8 -11.342,-25.026 -25.281,-25.026 h -18.247 c -13.941,0 -25.281,11.226 -25.281,25.026 v 18.062 c 0,13.8 11.34,25.026 25.281,25.026 H 0 c 13.939,0 25.281,-11.226 25.281,-25.026 z"
       style="fill:#03312c;fill-opacity:1;fill-rule:nonzero;stroke:none"
       transform="matrix(1.3333333,0,0,-1.3333333,488.6724,75.462667)"
       clip-path="url(#clipPath11)" /><path
       id="path12"
       d="m 0,0 c -8.232,4.366 -17.649,9.318 -25.836,13.705 v -29.45 l 5.331,-2.823 5.332,2.823 v 11.807 l 9.842,-5.209 V -27.858 L 0,-31.112 l 5.332,3.254 v 18.711 l 9.841,5.209 v -11.807 l 5.332,-2.823 5.329,2.823 v 29.45 z"
       style="fill:#03312c;fill-opacity:1;fill-rule:nonzero;stroke:none"
       transform="matrix(1.3333333,0,0,-1.3333333,476.50747,122.964)"
       clip-path="url(#clipPath13)" /><path
       id="path14"
       d="M 0,0 6.45,-20.106 12.881,0 h 9.17 v -28.899 h -6.987 v 6.749 L 15.739,-8.336 8.753,-28.899 H 4.148 l -7.006,20.583 0.675,-13.834 v -6.749 H -9.15 V 0 Z"
       style="fill:#03312c;fill-opacity:1;fill-rule:nonzero;stroke:none"
       transform="matrix(1.3333333,0,0,-1.3333333,560.98413,105.4248)"
       clip-path="url(#clipPath15)" /><path
       id="path16"
       d="M 0,0 H -10.956 V -6.907 H 1.985 v -5.359 H -17.923 V 16.632 H 2.024 v -5.378 h -12.98 V 5.16 H 0 Z"
       style="fill:#03312c;fill-opacity:1;fill-rule:nonzero;stroke:none"
       transform="matrix(1.3333333,0,0,-1.3333333,620.75827,127.60133)"
       clip-path="url(#clipPath17)" /><path
       id="path18"
       d="M 0,0 H -6.927 L -17.169,17.982 V 0 h -6.966 v 28.899 h 6.966 L -6.947,10.916 V 28.899 H 0 Z"
       style="fill:#03312c;fill-opacity:1;fill-rule:nonzero;stroke:none"
       transform="matrix(1.3333333,0,0,-1.3333333,661.59147,143.95627)"
       clip-path="url(#clipPath19)" /><path
       id="path20"
       d="m 0,0 c 0,1.019 -0.361,1.813 -1.082,2.382 -0.721,0.569 -1.988,1.158 -3.801,1.767 -1.813,0.608 -3.294,1.197 -4.446,1.767 -3.744,1.838 -5.617,4.366 -5.617,7.581 0,1.601 0.466,3.013 1.4,4.238 0.932,1.223 2.252,2.176 3.959,2.858 1.707,0.681 3.626,1.022 5.756,1.022 2.077,0 3.94,-0.371 5.587,-1.112 1.648,-0.741 2.928,-1.796 3.841,-3.165 0.913,-1.37 1.369,-2.935 1.369,-4.694 H 0.019 c 0,1.177 -0.36,2.09 -1.081,2.739 -0.721,0.648 -1.697,0.972 -2.928,0.972 -1.244,0 -2.226,-0.275 -2.947,-0.824 -0.721,-0.549 -1.082,-1.247 -1.082,-2.093 0,-0.742 0.397,-1.413 1.191,-2.015 0.794,-0.602 2.19,-1.224 4.188,-1.866 1.998,-0.642 3.639,-1.333 4.922,-2.074 3.123,-1.8 4.684,-4.281 4.684,-7.442 0,-2.529 -0.953,-4.513 -2.858,-5.955 -1.905,-1.443 -4.518,-2.164 -7.839,-2.164 -2.342,0 -4.463,0.42 -6.362,1.26 -1.899,0.841 -3.328,1.992 -4.287,3.454 -0.96,1.462 -1.439,3.146 -1.439,5.051 h 6.986 c 0,-1.548 0.4,-2.689 1.201,-3.423 0.8,-0.734 2.101,-1.102 3.901,-1.102 1.151,0 2.06,0.248 2.728,0.744 C -0.335,-1.597 0,-0.9 0,0"
       style="fill:#03312c;fill-opacity:1;fill-rule:nonzero;stroke:none"
       transform="matrix(1.3333333,0,0,-1.3333333,687.40573,133.7152)"
       clip-path="url(#clipPath21)" /><path
       id="path22"
       d="M 0,0 H 6.213 L 3.096,10.024 Z m 7.88,-5.378 h -9.547 l -1.667,-5.399 h -7.443 l 10.599,28.898 h 6.55 L 17.05,-10.777 H 9.567 Z"
       style="fill:#03312c;fill-opacity:1;fill-rule:nonzero;stroke:none"
       transform="matrix(1.3333333,0,0,-1.3333333,712.398,129.5868)"
       clip-path="url(#clipPath23)" /><path
       id="path24"
       d="M 0,0 H -2.442 L -19.054,24.731 V 0 h -2.461 v 28.899 h 2.461 L -2.421,4.149 v 24.75 H 0 Z"
       style="fill:#03312c;fill-opacity:1;fill-rule:nonzero;stroke:none"
       transform="matrix(1.3333333,0,0,-1.3333333,767.96893,143.95627)"
       clip-path="url(#clipPath25)" /><path
       id="path26"
       d="m 0,0 c 0,3.48 -0.787,6.206 -2.362,8.177 -1.575,1.972 -3.731,2.958 -6.47,2.958 -2.687,0 -4.826,-0.989 -6.421,-2.967 -1.594,-1.979 -2.391,-4.741 -2.391,-8.286 v -3.017 c 0,-3.428 0.794,-6.144 2.381,-8.148 1.588,-2.005 3.744,-3.008 6.471,-3.008 2.765,0 4.922,0.99 6.47,2.968 C -0.774,-9.345 0,-6.59 0,-3.056 Z m 2.442,-3.135 c 0,-2.661 -0.46,-4.996 -1.38,-7.007 -0.92,-2.011 -2.233,-3.559 -3.94,-4.644 -1.706,-1.085 -3.679,-1.628 -5.914,-1.628 -3.374,0 -6.101,1.207 -8.178,3.623 -2.077,2.414 -3.116,5.672 -3.116,9.774 v 2.978 c 0,2.632 0.467,4.964 1.399,6.996 0.934,2.031 2.253,3.593 3.96,4.684 1.707,1.092 3.672,1.638 5.895,1.638 2.223,0 4.184,-0.536 5.885,-1.608 1.7,-1.072 3.013,-2.587 3.939,-4.545 0.927,-1.959 1.41,-4.227 1.45,-6.808 z"
       style="fill:#03312c;fill-opacity:1;fill-rule:nonzero;stroke:none"
       transform="matrix(1.3333333,0,0,-1.3333333,802.62213,122.60027)"
       clip-path="url(#clipPath27)" /><path
       id="path28"
       d="m 0,0 h 7.483 c 2.051,0 3.698,0.584 4.942,1.75 1.244,1.166 1.866,2.676 1.866,4.532 0,2.041 -0.649,3.625 -1.946,4.751 -1.296,1.126 -3.115,1.69 -5.457,1.69 H 0 Z M 8.396,-2.064 H 0 v -12.048 h -2.461 v 28.899 h 9.388 c 3.083,0 5.491,-0.746 7.225,-2.24 1.733,-1.494 2.6,-3.582 2.6,-6.265 0,-1.85 -0.543,-3.482 -1.628,-4.897 -1.085,-1.414 -2.54,-2.391 -4.366,-2.933 l 7.224,-12.305 v -0.259 h -2.599 z"
       style="fill:#03312c;fill-opacity:1;fill-rule:nonzero;stroke:none"
       transform="matrix(1.3333333,0,0,-1.3333333,816.9904,125.1408)"
       clip-path="url(#clipPath29)" /><path
       id="path30"
       d="m 0,0 c -0.847,-1.205 -2.174,-2.144 -3.98,-2.819 -1.806,-0.674 -3.828,-1.012 -6.063,-1.012 -2.263,0 -4.275,0.543 -6.034,1.628 -1.76,1.085 -3.123,2.62 -4.088,4.604 -0.966,1.985 -1.457,4.261 -1.469,6.828 v 3.652 c 0,4.009 1.012,7.175 3.036,9.497 2.025,2.322 4.744,3.483 8.158,3.483 2.977,0 5.371,-0.757 7.185,-2.272 1.813,-1.516 2.891,-3.603 3.235,-6.262 h -2.441 c -0.357,2.124 -1.221,3.733 -2.591,4.828 -1.369,1.094 -3.159,1.642 -5.369,1.642 -2.699,0 -4.835,-0.96 -6.41,-2.88 -1.575,-1.92 -2.362,-4.628 -2.362,-8.124 V 9.377 c 0,-2.198 0.373,-4.142 1.121,-5.831 0.747,-1.688 1.819,-2.996 3.216,-3.923 1.395,-0.927 2.999,-1.39 4.813,-1.39 2.104,0 3.91,0.331 5.418,0.993 0.979,0.436 1.707,0.945 2.183,1.528 v 7.462 h -7.76 v 2.065 H 0 Z"
       style="fill:#03312c;fill-opacity:1;fill-rule:nonzero;stroke:none"
       transform="matrix(1.3333333,0,0,-1.3333333,873.89187,139.37747)"
       clip-path="url(#clipPath31)" /><path
       id="path32"
       d="m 0,0 h -13.516 v -11.79 h 15.54 v -2.064 H -15.958 V 15.045 H 1.926 V 12.981 H -13.516 V 2.064 H 0 Z"
       style="fill:#03312c;fill-opacity:1;fill-rule:nonzero;stroke:none"
       transform="matrix(1.3333333,0,0,-1.3333333,903.0108,125.4844)"
       clip-path="url(#clipPath33)" /></g></svg>
